<svg id="Layer_1" enable-background="new 0 0 256 256" height="512" viewBox="0 0 256 256" width="512" xmlns="http://www.w3.org/2000/svg"><g><g><path d="m193.658 242h-162.104c-4.367 0-7.908-3.54-7.908-7.908v-191.757c0-4.367 3.54-7.908 7.908-7.908h162.104c4.367 0 7.908 3.54 7.908 7.908v191.757c0 4.368-3.541 7.908-7.908 7.908z" fill="#e0ebfc"/></g><g><path d="m181.481 79.071h-137.75c-2.209 0-4-1.791-4-4s1.791-4 4-4h137.75c2.209 0 4 1.791 4 4s-1.791 4-4 4z" fill="#a4c9ff"/></g><g><path d="m181.481 107.571h-137.75c-2.209 0-4-1.791-4-4s1.791-4 4-4h137.75c2.209 0 4 1.791 4 4s-1.791 4-4 4z" fill="#a4c9ff"/></g><g><path d="m181.481 136.071h-137.75c-2.209 0-4-1.791-4-4s1.791-4 4-4h137.75c2.209 0 4 1.791 4 4s-1.791 4-4 4z" fill="#a4c9ff"/></g><g><path d="m181.481 164.571h-137.75c-2.209 0-4-1.791-4-4s1.791-4 4-4h137.75c2.209 0 4 1.791 4 4s-1.791 4-4 4z" fill="#a4c9ff"/></g><g><path d="m181.481 193.071h-137.75c-2.209 0-4-1.791-4-4s1.791-4 4-4h137.75c2.209 0 4 1.791 4 4s-1.791 4-4 4z" fill="#a4c9ff"/></g><g><path d="m181.481 221.571h-137.75c-2.209 0-4-1.791-4-4s1.791-4 4-4h137.75c2.209 0 4 1.791 4 4s-1.791 4-4 4z" fill="#a4c9ff"/></g><g><path d="m193.658 244h-162.104c-5.463 0-9.908-4.444-9.908-9.908v-191.757c0-5.463 4.445-9.907 9.908-9.907h162.104c5.463 0 9.908 4.444 9.908 9.907v191.757c0 5.464-4.445 9.908-9.908 9.908zm-162.104-207.572c-3.257 0-5.908 2.65-5.908 5.907v191.757c0 3.257 2.65 5.908 5.908 5.908h162.104c3.257 0 5.908-2.65 5.908-5.908v-191.757c0-3.257-2.65-5.907-5.908-5.907z" fill="#3762cc"/></g><g><path d="m84.93 46.619v-24.711c0-4.367 3.54-7.908 7.908-7.908 4.367 0 7.908 3.54 7.908 7.908v24.711c0 4.367-3.54 7.908-7.908 7.908-4.368-.001-7.908-3.541-7.908-7.908z" fill="#6bdddd"/></g><g><path d="m45.392 46.619v-24.711c0-4.367 3.54-7.908 7.908-7.908 4.367 0 7.908 3.54 7.908 7.908v24.711c0 4.367-3.54 7.908-7.908 7.908-4.367-.001-7.908-3.541-7.908-7.908z" fill="#6bdddd"/></g><g><path d="m124.467 46.619v-24.711c0-4.367 3.54-7.908 7.908-7.908 4.367 0 7.908 3.54 7.908 7.908v24.711c0 4.367-3.54 7.908-7.908 7.908-4.367-.001-7.908-3.541-7.908-7.908z" fill="#6bdddd"/></g><g><path d="m164.005 46.619v-24.711c0-4.367 3.54-7.908 7.908-7.908 4.367 0 7.908 3.54 7.908 7.908v24.711c0 4.367-3.54 7.908-7.908 7.908-4.368-.001-7.908-3.541-7.908-7.908z" fill="#6bdddd"/></g><g><path d="m92.837 56.526c-5.463 0-9.908-4.444-9.908-9.907v-24.711c0-5.463 4.445-9.908 9.908-9.908s9.908 4.445 9.908 9.908v24.711c0 5.463-4.445 9.907-9.908 9.907zm0-40.526c-3.257 0-5.908 2.65-5.908 5.908v24.711c0 3.257 2.65 5.907 5.908 5.907s5.908-2.65 5.908-5.907v-24.711c0-3.258-2.65-5.908-5.908-5.908z" fill="#3762cc"/></g><g><path d="m53.3 56.526c-5.463 0-9.908-4.444-9.908-9.907v-24.711c0-5.463 4.445-9.908 9.908-9.908s9.908 4.445 9.908 9.908v24.711c0 5.463-4.445 9.907-9.908 9.907zm0-40.526c-3.257 0-5.908 2.65-5.908 5.908v24.711c0 3.257 2.65 5.907 5.908 5.907s5.908-2.65 5.908-5.907v-24.711c0-3.258-2.651-5.908-5.908-5.908z" fill="#3762cc"/></g><g><path d="m132.375 56.526c-5.463 0-9.908-4.444-9.908-9.907v-24.711c0-5.463 4.445-9.908 9.908-9.908s9.908 4.445 9.908 9.908v24.711c0 5.463-4.445 9.907-9.908 9.907zm0-40.526c-3.257 0-5.908 2.65-5.908 5.908v24.711c0 3.257 2.65 5.907 5.908 5.907s5.908-2.65 5.908-5.907v-24.711c0-3.258-2.651-5.908-5.908-5.908z" fill="#3762cc"/></g><g><path d="m171.913 56.526c-5.463 0-9.908-4.444-9.908-9.907v-24.711c0-5.463 4.445-9.908 9.908-9.908s9.908 4.445 9.908 9.908v24.711c-.001 5.463-4.446 9.907-9.908 9.907zm0-40.526c-3.257 0-5.908 2.65-5.908 5.908v24.711c0 3.257 2.65 5.907 5.908 5.907s5.908-2.65 5.908-5.907v-24.711c-.001-3.258-2.651-5.908-5.908-5.908z" fill="#3762cc"/></g><g><path d="m222.85 72.531 8.35 8.35c1.537 1.537 1.537 4.03 0 5.567l-7.979 7.979-13.917-13.917 7.979-7.979c1.537-1.537 4.03-1.537 5.567 0z" fill="#6bdddd"/></g><g><path d="m104.306 183.838 15.587 15.587-19.197 5.56c-1.191.345-2.296-.759-1.95-1.95z" fill="#e0ebfc"/></g><g><path d="m225.17 96.376 4.087 4.086c2.449 2.449 2.449 6.419 0 8.868l-47.415 47.415c-1.403 1.403-3.678 1.403-5.081 0l-.003-.003c-1.38-1.38-1.406-3.609-.059-5.021l40.734-42.687-2.461-2.461z" fill="#6bdddd"/></g><g><path d="m100.89 153.548h76.541v22.044h-76.541z" fill="#6bdddd" transform="matrix(.707 -.707 .707 .707 -75.61 146.603)"/></g><g><path d="m223.221 96.427c-.512 0-1.023-.195-1.414-.586l-13.917-13.917c-.375-.375-.586-.884-.586-1.414s.211-1.039.586-1.414l7.979-7.979c2.314-2.313 6.081-2.314 8.395 0l8.351 8.351c2.314 2.314 2.314 6.08 0 8.395l-7.98 7.979c-.39.39-.902.585-1.414.585zm-11.089-15.917 11.089 11.089 6.565-6.565c.754-.755.755-1.984 0-2.739l-8.351-8.351c-.754-.755-1.983-.754-2.739 0z" fill="#3762cc"/></g><g><path d="m100.259 207.048c-.936 0-1.849-.368-2.529-1.048-.92-.921-1.268-2.271-.905-3.521l5.561-19.197c.197-.679.738-1.204 1.423-1.38.682-.178 1.412.022 1.912.523l15.587 15.587c.5.5.699 1.227.523 1.912s-.701 1.226-1.38 1.423l-19.197 5.561c-.329.093-.664.14-.995.14zm5.027-19.402-4.404 15.205 15.204-4.404z" fill="#3762cc"/></g><g><path d="m179.3 159.797c-1.481 0-2.875-.572-3.928-1.611-.01-.01-.02-.02-.03-.029-2.13-2.13-2.171-5.636-.091-7.816l39.385-41.273-1.08-1.08c-.781-.781-.781-2.047 0-2.828l10.198-10.198c.75-.75 2.078-.75 2.828 0l4.087 4.087c3.225 3.225 3.225 8.471 0 11.696l-47.416 47.415c-1.054 1.056-2.459 1.637-3.953 1.637zm-1.145-4.484.019.019c.602.602 1.65.602 2.252 0l47.416-47.415c1.665-1.665 1.665-4.375 0-6.04l-2.673-2.672-7.37 7.37 1.047 1.047c.768.768.782 2.009.032 2.795l-40.734 42.687c-.586.614-.58 1.601.011 2.209z" fill="#3762cc"/></g><g><path d="m119.893 201.425c-.53 0-1.039-.211-1.414-.586l-15.587-15.587c-.781-.781-.781-2.047 0-2.828l54.123-54.123c.78-.781 2.048-.781 2.828 0l15.587 15.587c.375.375.586.884.586 1.414s-.211 1.039-.586 1.414l-54.123 54.123c-.375.375-.884.586-1.414.586zm-12.758-17.587 12.758 12.759 51.294-51.294-12.759-12.759z" fill="#3762cc"/></g><g><path d="m152.429 135.715 15.587 15.587c.615.615 1.612.615 2.227 0l54.927-54.927-16.701-16.701c-.615-.615-1.612-.615-2.227 0l-53.814 53.814c-.614.615-.614 1.612.001 2.227z" fill="#4671c6"/></g><g><path d="m169.129 153.762c-.916 0-1.831-.349-2.527-1.045l-15.587-15.587c-.676-.675-1.048-1.573-1.048-2.528s.372-1.853 1.047-2.528l53.813-53.813c1.394-1.394 3.661-1.394 5.055 0l16.701 16.701c.781.781.781 2.047 0 2.828l-54.927 54.927c-.696.697-1.611 1.045-2.527 1.045zm.301-3.873h.01zm-15.286-15.287 14.986 14.986 53.211-53.211-14.986-14.987z" fill="#3762cc"/></g></g></svg>